<svg width="30" height="30" viewBox="0 0 30 30" fill="none" xmlns="http://www.w3.org/2000/svg">
<g id="award-fill">
<g id="Vector">
<path d="M15 0L18.1288 1.62055L21.6126 2.14856L23.1913 5.29867L25.6994 7.77356L25.125 11.25L25.6994 14.7264L23.1913 17.2013L21.6126 20.3514L18.1288 20.8794L15 22.5L11.8712 20.8794L8.38743 20.3514L6.80872 17.2013L4.30063 14.7264L4.87501 11.25L4.30063 7.77356L6.80872 5.29867L8.38743 2.14856L11.8712 1.62055L15 0Z" fill="#806056"/>
<path d="M7.50001 22.1134V30L15 28.125L22.5 30V22.1134L18.7161 22.6869L15 24.6116L11.2839 22.6869L7.50001 22.1134Z" fill="#806056"/>
</g>
</g>
</svg>
