<svg width="30" height="30" viewBox="0 0 30 30" fill="none" xmlns="http://www.w3.org/2000/svg">
<g id="fluent:building-24-filled">
<path id="Vector" d="M5 5.3125C5 4.56658 5.29632 3.85121 5.82376 3.32376C6.35121 2.79632 7.06658 2.5 7.8125 2.5H17.8125C18.5584 2.5 19.2738 2.79632 19.8012 3.32376C20.3287 3.85121 20.625 4.56658 20.625 5.3125V11.875H22.1875C22.5568 11.875 22.9226 11.9477 23.2638 12.0891C23.605 12.2304 23.9151 12.4376 24.1762 12.6988C24.4374 12.9599 24.6446 13.27 24.7859 13.6112C24.9273 13.9524 25 14.3182 25 14.6875V26.5625C25 26.8111 24.9012 27.0496 24.7254 27.2254C24.5496 27.4012 24.3111 27.5 24.0625 27.5H20.625V22.8125C20.625 21.95 19.925 21.25 19.0625 21.25H10.9375C10.075 21.25 9.375 21.95 9.375 22.8125V27.5H5.9375C5.68886 27.5 5.4504 27.4012 5.27459 27.2254C5.09877 27.0496 5 26.8111 5 26.5625V5.3125ZM18.75 23.125V27.5H15.9375V23.125H18.75ZM14.0625 23.125V27.5H11.25V23.125H14.0625ZM9.375 8.125C9.375 8.45652 9.5067 8.77446 9.74112 9.00888C9.97554 9.2433 10.2935 9.375 10.625 9.375C10.9565 9.375 11.2745 9.2433 11.5089 9.00888C11.7433 8.77446 11.875 8.45652 11.875 8.125C11.875 7.79348 11.7433 7.47554 11.5089 7.24112C11.2745 7.0067 10.9565 6.875 10.625 6.875C10.2935 6.875 9.97554 7.0067 9.74112 7.24112C9.5067 7.47554 9.375 7.79348 9.375 8.125ZM10.625 15.625C10.2935 15.625 9.97554 15.7567 9.74112 15.9911C9.5067 16.2255 9.375 16.5435 9.375 16.875C9.375 17.2065 9.5067 17.5245 9.74112 17.7589C9.97554 17.9933 10.2935 18.125 10.625 18.125C10.9565 18.125 11.2745 17.9933 11.5089 17.7589C11.7433 17.5245 11.875 17.2065 11.875 16.875C11.875 16.5435 11.7433 16.2255 11.5089 15.9911C11.2745 15.7567 10.9565 15.625 10.625 15.625ZM10.625 11.25C10.2935 11.25 9.97554 11.3817 9.74112 11.6161C9.5067 11.8505 9.375 12.1685 9.375 12.5C9.375 12.8315 9.5067 13.1495 9.74112 13.3839C9.97554 13.6183 10.2935 13.75 10.625 13.75C10.9565 13.75 11.2745 13.6183 11.5089 13.3839C11.7433 13.1495 11.875 12.8315 11.875 12.5C11.875 12.1685 11.7433 11.8505 11.5089 11.6161C11.2745 11.3817 10.9565 11.25 10.625 11.25ZM15 6.875C14.6685 6.875 14.3505 7.0067 14.1161 7.24112C13.8817 7.47554 13.75 7.79348 13.75 8.125C13.75 8.45652 13.8817 8.77446 14.1161 9.00888C14.3505 9.2433 14.6685 9.375 15 9.375C15.3315 9.375 15.6495 9.2433 15.8839 9.00888C16.1183 8.77446 16.25 8.45652 16.25 8.125C16.25 7.79348 16.1183 7.47554 15.8839 7.24112C15.6495 7.0067 15.3315 6.875 15 6.875ZM15 15.625C14.6685 15.625 14.3505 15.7567 14.1161 15.9911C13.8817 16.2255 13.75 16.5435 13.75 16.875C13.75 17.2065 13.8817 17.5245 14.1161 17.7589C14.3505 17.9933 14.6685 18.125 15 18.125C15.3315 18.125 15.6495 17.9933 15.8839 17.7589C16.1183 17.5245 16.25 17.2065 16.25 16.875C16.25 16.5435 16.1183 16.2255 15.8839 15.9911C15.6495 15.7567 15.3315 15.625 15 15.625ZM19.375 15.625C19.0435 15.625 18.7255 15.7567 18.4911 15.9911C18.2567 16.2255 18.125 16.5435 18.125 16.875C18.125 17.2065 18.2567 17.5245 18.4911 17.7589C18.7255 17.9933 19.0435 18.125 19.375 18.125C19.7065 18.125 20.0245 17.9933 20.2589 17.7589C20.4933 17.5245 20.625 17.2065 20.625 16.875C20.625 16.5435 20.4933 16.2255 20.2589 15.9911C20.0245 15.7567 19.7065 15.625 19.375 15.625ZM15 11.25C14.6685 11.25 14.3505 11.3817 14.1161 11.6161C13.8817 11.8505 13.75 12.1685 13.75 12.5C13.75 12.8315 13.8817 13.1495 14.1161 13.3839C14.3505 13.6183 14.6685 13.75 15 13.75C15.3315 13.75 15.6495 13.6183 15.8839 13.3839C16.1183 13.1495 16.25 12.8315 16.25 12.5C16.25 12.1685 16.1183 11.8505 15.8839 11.6161C15.6495 11.3817 15.3315 11.25 15 11.25Z" fill="#806056"/>
</g>
</svg>
