<svg width="16" height="17" viewBox="0 0 16 17" fill="none" xmlns="http://www.w3.org/2000/svg">
<g id="filter">
<path id="Icon" fill-rule="evenodd" clip-rule="evenodd" d="M10.3333 3.89999C11.4931 3.89999 12.4333 4.8402 12.4333 5.99999C12.4333 7.15979 11.4931 8.09999 10.3333 8.09999C9.17345 8.09999 8.23325 7.15979 8.23325 5.99999C8.23325 4.8402 9.17345 3.89999 10.3333 3.89999ZM10.3333 4.76666C9.6521 4.76666 9.09992 5.31884 9.09992 5.99999C9.09992 6.68115 9.6521 7.23333 10.3333 7.23333C11.0144 7.23333 11.5666 6.68115 11.5666 5.99999C11.5666 5.31884 11.0144 4.76666 10.3333 4.76666ZM8.09668 5.33289C8.03372 5.54425 7.99992 5.76818 7.99992 5.99999C7.99992 6.23178 8.03372 6.45567 8.09668 6.66701L1.99992 6.66666C1.63173 6.66666 1.33325 6.36818 1.33325 5.99999C1.33325 5.6318 1.63173 5.33333 1.99992 5.33333L8.09668 5.33289ZM12.5698 5.33289L13.9999 5.33333C14.3681 5.33333 14.6666 5.6318 14.6666 5.99999C14.6666 6.36818 14.3681 6.66666 13.9999 6.66666L12.5699 6.66701C12.6328 6.45567 12.6666 6.23178 12.6666 5.99999C12.6666 5.76818 12.6328 5.54425 12.5698 5.33289ZM5.33325 8.89999C6.49305 8.89999 7.43325 9.8402 7.43325 11C7.43325 12.1598 6.49305 13.1 5.33325 13.1C4.17345 13.1 3.23325 12.1598 3.23325 11C3.23325 9.8402 4.17345 8.89999 5.33325 8.89999ZM5.33325 9.76666C4.6521 9.76666 4.09992 10.3188 4.09992 11C4.09992 11.6811 4.6521 12.2333 5.33325 12.2333C6.0144 12.2333 6.56659 11.6811 6.56659 11C6.56659 10.3188 6.0144 9.76666 5.33325 9.76666ZM3.09667 10.3329C3.03372 10.5443 2.99992 10.7682 2.99992 11C2.99992 11.2318 3.03371 11.4557 3.09665 11.667L1.99992 11.6667C1.63173 11.6667 1.33325 11.3682 1.33325 11C1.33325 10.6318 1.63173 10.3333 1.99992 10.3333L3.09667 10.3329ZM7.56983 10.3329L13.9999 10.3333C14.3681 10.3333 14.6666 10.6318 14.6666 11C14.6666 11.3682 14.3681 11.6667 13.9999 11.6667L7.56983 11.667C7.63279 11.4557 7.66659 11.2318 7.66659 11C7.66659 10.7682 7.63278 10.5443 7.56983 10.3329Z" fill="#333333"/>
</g>
</svg>
