<svg width="80" height="130" viewBox="0 0 80 130" fill="none" xmlns="http://www.w3.org/2000/svg">
<g id="Frame 16">
<rect id="Rectangle 12" width="5" height="5" rx="2.5" fill="#96AC97"/>
<rect id="Rectangle 16" x="25" width="5" height="5" rx="2.5" fill="#96AC97"/>
<rect id="Rectangle 18" x="50" width="5" height="5" rx="2.5" fill="#96AC97"/>
<rect id="Rectangle 13" x="75" width="5" height="5" rx="2.5" fill="#96AC97"/>
<rect id="Rectangle 14" y="25" width="5" height="5" rx="2.5" fill="#96AC97"/>
<rect id="Rectangle 19" x="25" y="25" width="5" height="5" rx="2.5" fill="#96AC97"/>
<rect id="Rectangle 20" x="50" y="25" width="5" height="5" rx="2.5" fill="#96AC97"/>
<rect id="Rectangle 21" x="75" y="25" width="5" height="5" rx="2.5" fill="#96AC97"/>
<rect id="Rectangle 22" y="50" width="5" height="5" rx="2.5" fill="#96AC97"/>
<rect id="Rectangle 24" x="25" y="50" width="5" height="5" rx="2.5" fill="#96AC97"/>
<rect id="Rectangle 25" x="50" y="50" width="5" height="5" rx="2.5" fill="#96AC97"/>
<rect id="Rectangle 26" x="75" y="50" width="5" height="5" rx="2.5" fill="#96AC97"/>
<rect id="Rectangle 23" x="25" y="75" width="5" height="5" rx="2.5" fill="#96AC97"/>
<rect id="Rectangle 17" x="50" y="75" width="5" height="5" rx="2.5" fill="#96AC97"/>
<rect id="Rectangle 28" x="75" y="75" width="5" height="5" rx="2.5" fill="#96AC97"/>
<rect id="Rectangle 29" x="25" y="100" width="5" height="5" rx="2.5" fill="#96AC97"/>
<rect id="Rectangle 30" x="50" y="100" width="5" height="5" rx="2.5" fill="#96AC97"/>
<rect id="Rectangle 15" x="75" y="100" width="5" height="5" rx="2.5" fill="#96AC97"/>
<rect id="Rectangle 30_2" x="50" y="125" width="5" height="5" rx="2.5" fill="#96AC97"/>
<rect id="Rectangle 31" x="75" y="125" width="5" height="5" rx="2.5" fill="#96AC97"/>
</g>
</svg>
