<svg width="30" height="30" viewBox="0 0 30 30" fill="none" xmlns="http://www.w3.org/2000/svg">
<g id="ant-design:like-filled">
<path id="Vector" d="M25.9541 15.6358C26.4463 14.9854 26.7188 14.1885 26.7188 13.3594C26.7188 12.044 25.9834 10.7988 24.7998 10.1045C24.4951 9.92579 24.1482 9.83172 23.7949 9.83205H16.7695L16.9453 6.23147C16.9863 5.36135 16.6787 4.53518 16.0811 3.9053C15.7878 3.59483 15.4339 3.34781 15.0414 3.17951C14.6488 3.01121 14.2259 2.92519 13.7988 2.92678C12.2754 2.92678 10.9277 3.95217 10.5234 5.41994L8.00684 14.5313H7.99805V27.0703H21.835C22.1045 27.0703 22.3682 27.0176 22.6113 26.9121C24.0059 26.3174 24.9053 24.9551 24.9053 23.4434C24.9053 23.0742 24.8525 22.711 24.7471 22.3594C25.2393 21.709 25.5117 20.9121 25.5117 20.083C25.5117 19.7139 25.459 19.3506 25.3535 18.999C25.8457 18.3487 26.1182 17.5518 26.1182 16.7227C26.1123 16.3535 26.0596 15.9873 25.9541 15.6358ZM3.28125 15.4688V26.1328C3.28125 26.6514 3.7002 27.0703 4.21875 27.0703H6.12305V14.5313H4.21875C3.7002 14.5313 3.28125 14.9502 3.28125 15.4688Z" fill="#806056"/>
</g>
</svg>
