<svg width="20" height="21" viewBox="0 0 20 21" fill="none" xmlns="http://www.w3.org/2000/svg">
<g id="person">
<g id="Subtract">
<path d="M10 10.5C12.7614 10.5 15 8.26142 15 5.5C15 2.73858 12.7614 0.5 10 0.5C7.23858 0.5 5 2.73858 5 5.5C5 8.26142 7.23858 10.5 10 10.5ZM13.3333 5.5C13.3333 7.34095 11.8409 8.83333 10 8.83333C8.15905 8.83333 6.66667 7.34095 6.66667 5.5C6.66667 3.65905 8.15905 2.16667 10 2.16667C11.8409 2.16667 13.3333 3.65905 13.3333 5.5Z" fill="black"/>
<path d="M20 18.8333C20 20.5 18.3333 20.5 18.3333 20.5H1.66667C1.66667 20.5 0 20.5 0 18.8333C0 17.1667 1.66667 12.1667 10 12.1667C18.3333 12.1667 20 17.1667 20 18.8333ZM18.3333 18.8275C18.3309 18.4162 18.077 17.1841 16.9465 16.0535C15.8594 14.9664 13.8152 13.8333 9.99998 13.8333C6.1848 13.8333 4.14059 14.9664 3.05349 16.0535C1.92292 17.1841 1.66904 18.4162 1.66667 18.8275H18.3333Z" fill="black"/>
</g>
</g>
</svg>
