<svg width="18" height="17" viewBox="0 0 18 17" fill="none" xmlns="http://www.w3.org/2000/svg">
<g id="edit">
<path id="Vector 1" d="M9.41667 1H3.5C2.39543 1 1.5 1.89543 1.5 3V14C1.5 15.1046 2.39543 16 3.5 16H14.5C15.6046 16 16.5 15.1046 16.5 14V8.08333" stroke="white" stroke-width="2" stroke-linecap="round"/>
<path id="Vector 2" d="M14.5741 5.88279L9.35662 11.0626C9.12252 11.295 8.83458 11.4659 8.51843 11.5601L5.53901 12.4475C5.35184 12.5032 5.17588 12.3324 5.22603 12.1437L5.94718 9.42922C6.03642 9.09331 6.21166 8.78645 6.45562 8.5389L11.8035 3.11225M14.5741 5.88279L15.8812 4.57563C16.6463 3.81057 16.6463 2.57015 15.8812 1.80509V1.80509C15.1161 1.04002 13.8757 1.04002 13.1107 1.80509L11.8035 3.11225M14.5741 5.88279L11.8035 3.11225" stroke="white" stroke-width="2"/>
</g>
</svg>
