<svg width="20" height="21" viewBox="0 0 20 21" fill="none" xmlns="http://www.w3.org/2000/svg">
<g id="setting-regular">
<path id="settings-Regular" d="M10 14.3462C9.2393 14.3462 8.49569 14.1206 7.86319 13.698C7.23069 13.2753 6.73772 12.6747 6.44662 11.9719C6.15551 11.2691 6.07934 10.4957 6.22775 9.74965C6.37615 9.00357 6.74246 8.31825 7.28036 7.78036C7.81825 7.24246 8.50357 6.87615 9.24965 6.72775C9.99573 6.57934 10.7691 6.65551 11.4719 6.94662C12.1747 7.23772 12.7753 7.73069 13.198 8.36319C13.6206 8.99569 13.8462 9.7393 13.8462 10.5C13.8451 11.5197 13.4395 12.4974 12.7184 13.2184C11.9974 13.9395 11.0197 14.3451 10 14.3462ZM10 8.19231C9.54358 8.19231 9.09741 8.32765 8.71791 8.58122C8.33842 8.8348 8.04263 9.19521 7.86797 9.61688C7.69331 10.0386 7.64761 10.5026 7.73665 10.9502C7.82569 11.3979 8.04548 11.809 8.36821 12.1318C8.69095 12.4545 9.10214 12.6743 9.54979 12.7633C9.99744 12.8524 10.4614 12.8067 10.8831 12.632C11.3048 12.4574 11.6652 12.1616 11.9188 11.7821C12.1723 11.4026 12.3077 10.9564 12.3077 10.5C12.3071 9.88813 12.0638 9.30147 11.6312 8.86881C11.1985 8.43616 10.6119 8.19285 10 8.19231ZM10.5128 20.5H9.48718C8.87531 20.4995 8.28865 20.2561 7.85599 19.8235C7.42334 19.3908 7.18003 18.8042 7.17949 18.1923C7.18078 18.1183 7.16 18.0457 7.11981 17.9836C7.07963 17.9214 7.02185 17.8727 6.95385 17.8436H6.94564C6.8837 17.8179 6.81554 17.8113 6.74981 17.8244C6.68407 17.8376 6.62372 17.8699 6.57641 17.9174C6.14034 18.3486 5.55299 18.5922 4.93977 18.5962C4.32655 18.6002 3.73605 18.3644 3.29436 17.939L2.57641 17.2149C2.36147 17.0004 2.19094 16.7457 2.07459 16.4652C1.95824 16.1848 1.89835 15.8841 1.89835 15.5805C1.89835 15.2769 1.95824 14.9762 2.07459 14.6958C2.19094 14.4153 2.36147 14.1606 2.57641 13.9462C2.62731 13.8939 2.66189 13.828 2.67592 13.7564C2.68994 13.6848 2.68281 13.6107 2.65538 13.5431C2.63033 13.4792 2.58681 13.4241 2.53036 13.385C2.47392 13.346 2.40711 13.3246 2.33846 13.3236C2.03287 13.3266 1.72971 13.269 1.44646 13.1543C1.16321 13.0396 0.905467 12.8699 0.688088 12.6551C0.470709 12.4403 0.297995 12.1846 0.179899 11.9027C0.0618032 11.6209 0.000662203 11.3184 0 11.0128V9.98718C0.000543162 9.37531 0.243849 8.78865 0.676507 8.35599C1.10917 7.92334 1.69582 7.68003 2.30769 7.67949C2.38157 7.68099 2.4542 7.66028 2.51619 7.62006C2.57817 7.57983 2.62666 7.52193 2.65538 7.45385V7.44564C2.68075 7.38366 2.68728 7.31556 2.67414 7.24989C2.66101 7.18421 2.6288 7.12387 2.58154 7.07641C2.36305 6.86322 2.18904 6.6088 2.06957 6.32788C1.9501 6.04697 1.88755 5.74514 1.88555 5.43988C1.88354 5.13462 1.94213 4.832 2.0579 4.54954C2.17367 4.26708 2.34433 4.0104 2.56 3.79436L3.28718 3.06718C3.7263 2.64655 4.31089 2.41173 4.91897 2.41173C5.52705 2.41173 6.11165 2.64655 6.55077 3.06718C6.60259 3.12106 6.66933 3.15825 6.74242 3.17396C6.81551 3.18968 6.89163 3.18321 6.96102 3.15538C7.02464 3.13042 7.07934 3.08701 7.11809 3.03071C7.15684 2.97442 7.17786 2.90782 7.17846 2.83949C7.17535 2.53398 7.23271 2.23088 7.34725 1.94765C7.4618 1.66441 7.63125 1.40664 7.84585 1.18918C8.06045 0.971715 8.31596 0.798866 8.59765 0.680585C8.87935 0.562305 9.18166 0.500931 9.48718 0.5H10.5128C11.1247 0.500543 11.7113 0.743849 12.144 1.17651C12.5767 1.60917 12.82 2.19582 12.8205 2.80769C12.8169 2.87988 12.8356 2.95143 12.8741 3.01256C12.9127 3.07369 12.9692 3.12143 13.0359 3.14923C13.1008 3.17687 13.1721 3.18546 13.2417 3.17402C13.3113 3.16258 13.3761 3.13157 13.4287 3.08462C13.643 2.86504 13.899 2.69058 14.1817 2.5715C14.4644 2.45242 14.7681 2.39115 15.0749 2.39128C15.378 2.39044 15.6784 2.44974 15.9585 2.56576C16.2386 2.68178 16.4929 2.85221 16.7067 3.06718L17.4308 3.78513C17.6451 3.99942 17.815 4.25382 17.931 4.5338C18.047 4.81378 18.1067 5.11387 18.1067 5.41692C18.1067 5.71998 18.047 6.02006 17.931 6.30005C17.815 6.58003 17.6451 6.83443 17.4308 7.04872C17.3763 7.09684 17.3382 7.16064 17.3214 7.23134C17.3047 7.30205 17.3103 7.37619 17.3374 7.44359L17.3436 7.45795C17.3686 7.52118 17.4119 7.57549 17.468 7.61387C17.5241 7.65226 17.5905 7.67297 17.6585 7.67333C17.9646 7.66994 18.2683 7.72728 18.5521 7.84201C18.8359 7.95675 19.0942 8.12662 19.3119 8.34179C19.5297 8.55696 19.7026 8.81317 19.8207 9.09559C19.9388 9.37802 19.9997 9.68105 20 9.98718V11.0128C19.9995 11.6247 19.7561 12.2113 19.3235 12.644C18.8908 13.0767 18.3042 13.32 17.6923 13.3205C17.6201 13.3169 17.5486 13.3356 17.4874 13.3741C17.4263 13.4127 17.3786 13.4692 17.3508 13.5359C17.3235 13.6008 17.3151 13.6721 17.3265 13.7416C17.338 13.8111 17.3688 13.8759 17.4154 13.9287C17.6336 14.1422 17.8073 14.3968 17.9264 14.6779C18.0455 14.9589 18.1077 15.2608 18.1093 15.5661C18.1109 15.8714 18.052 16.1739 17.9359 16.4562C17.8197 16.7385 17.6488 16.995 17.4328 17.2108L16.7149 17.9349C16.2757 18.3555 15.6912 18.5903 15.0831 18.5903C14.475 18.5903 13.8904 18.3555 13.4513 17.9349C13.4031 17.8806 13.3393 17.8425 13.2686 17.8258C13.1979 17.8091 13.1238 17.8146 13.0564 17.8415C12.9912 17.8671 12.9347 17.911 12.8939 17.968C12.8532 18.025 12.8298 18.0926 12.8267 18.1626C12.8295 18.4683 12.7718 18.7716 12.6568 19.055C12.5418 19.3383 12.3719 19.5961 12.1567 19.8134C11.9416 20.0307 11.6856 20.2032 11.4034 20.3211C11.1213 20.4389 10.8186 20.4997 10.5128 20.5ZM7.63179 16.4672C7.95257 16.6211 8.22411 16.8614 8.41596 17.161C8.60781 17.4607 8.71238 17.8078 8.71795 18.1636C8.71508 18.2667 8.73281 18.3694 8.77009 18.4657C8.80737 18.5619 8.86347 18.6497 8.93509 18.724C9.00671 18.7983 9.09242 18.8576 9.18722 18.8984C9.28201 18.9391 9.38399 18.9606 9.48718 18.9615H10.5128C10.7168 18.9615 10.9125 18.8805 11.0567 18.7362C11.201 18.592 11.2821 18.3963 11.2821 18.1923C11.2815 17.8133 11.3933 17.4426 11.6032 17.127C11.8131 16.8114 12.1118 16.565 12.4615 16.419C12.8045 16.2768 13.182 16.2399 13.546 16.313C13.91 16.386 14.2441 16.5657 14.5056 16.8292C14.5763 16.9048 14.6615 16.9654 14.756 17.0075C14.8505 17.0496 14.9525 17.0723 15.056 17.0743C15.1594 17.0763 15.2622 17.0575 15.3583 17.0192C15.4544 16.9808 15.5418 16.9235 15.6154 16.8508L16.3395 16.1328C16.484 15.9882 16.5651 15.7921 16.5651 15.5877C16.5651 15.3833 16.484 15.1872 16.3395 15.0426C16.0761 14.7774 15.8957 14.4411 15.8205 14.0749C15.7452 13.7088 15.7784 13.3286 15.9159 12.981V12.9667L15.9231 12.9492C16.0641 12.6054 16.3044 12.3115 16.6134 12.1051C16.9223 11.8986 17.2858 11.789 17.6574 11.7903C17.7605 11.793 17.863 11.7752 17.959 11.7378C18.0551 11.7004 18.1427 11.6443 18.2168 11.5727C18.2909 11.5011 18.35 11.4154 18.3906 11.3207C18.4312 11.2259 18.4526 11.1241 18.4533 11.021V9.99538C18.4533 9.79137 18.3723 9.59571 18.228 9.45146C18.0838 9.3072 17.8881 9.22615 17.6841 9.22615C17.3082 9.23081 16.9394 9.12295 16.6252 8.91643C16.3111 8.7099 16.0658 8.41415 15.921 8.06718C15.772 7.71986 15.731 7.33574 15.8032 6.96478C15.8755 6.59383 16.0577 6.25319 16.3262 5.98718C16.4035 5.91441 16.4652 5.82672 16.5077 5.72942C16.5502 5.63211 16.5725 5.5272 16.5733 5.42103C16.5736 5.31998 16.5538 5.21989 16.5151 5.12657C16.4764 5.03325 16.4195 4.94856 16.3477 4.87744L15.6297 4.15333C15.5582 4.08195 15.4732 4.02536 15.3798 3.98682C15.2863 3.94828 15.1862 3.92854 15.0851 3.92872C14.9838 3.92824 14.8834 3.94805 14.7899 3.98697C14.6964 4.0259 14.6116 4.08317 14.5405 4.15538C14.275 4.41836 13.9388 4.59842 13.5727 4.67363C13.2067 4.74885 12.8267 4.71596 12.479 4.57897L12.4615 4.5759L12.4441 4.56872C12.1003 4.42772 11.8064 4.18737 11.5999 3.87841C11.3935 3.56946 11.2839 3.20594 11.2851 2.83436C11.2879 2.73134 11.27 2.6288 11.2327 2.53276C11.1953 2.43671 11.1392 2.34907 11.0676 2.27496C10.9959 2.20086 10.9103 2.14178 10.8155 2.10117C10.7208 2.06056 10.619 2.03924 10.5159 2.03846H9.49026C9.28624 2.03846 9.09059 2.11951 8.94633 2.26376C8.80207 2.40802 8.72103 2.60368 8.72103 2.80769C8.72547 3.18627 8.61583 3.55741 8.40637 3.87279C8.19691 4.18817 7.89734 4.43318 7.54667 4.5759C7.20164 4.71739 6.82272 4.75472 6.45672 4.68327C6.09071 4.61182 5.75366 4.43472 5.48718 4.17385C5.41635 4.09887 5.3313 4.03875 5.23698 3.997C5.14266 3.95526 5.04097 3.93273 4.93785 3.93072C4.83473 3.92872 4.73224 3.94728 4.63637 3.98533C4.5405 4.02337 4.45317 4.08014 4.37949 4.15231L3.65231 4.87949C3.58083 4.95092 3.52412 5.03574 3.48543 5.1291C3.44674 5.22246 3.42683 5.32253 3.42683 5.42359C3.42683 5.52465 3.44674 5.62472 3.48543 5.71808C3.52412 5.81143 3.58083 5.89626 3.65231 5.96769C3.92262 6.23043 4.10795 6.56817 4.18437 6.9373C4.26079 7.30643 4.2248 7.69 4.08103 8.03846C4.067 8.07357 4.0509 8.10782 4.03282 8.14103C3.87759 8.46007 3.63677 8.72972 3.33722 8.91988C3.03767 9.11003 2.69119 9.21323 2.33641 9.21795C2.23325 9.21508 2.13056 9.23281 2.03434 9.27009C1.93811 9.30737 1.85028 9.36347 1.77599 9.43509C1.70169 9.50671 1.64242 9.59242 1.60164 9.68722C1.56085 9.78201 1.53938 9.88399 1.53846 9.98718V11.0128C1.53846 11.2168 1.61951 11.4125 1.76376 11.5567C1.90802 11.701 2.10368 11.7821 2.30769 11.7821C2.68408 11.7772 3.05325 11.8855 3.3674 12.0929C3.68156 12.3002 3.92623 12.5971 4.06974 12.9451L4.0759 12.9585L4.08103 12.9728C4.21856 13.3177 4.253 13.6952 4.18018 14.0593C4.10735 14.4234 3.93039 14.7586 3.67077 15.0241C3.59511 15.0958 3.53483 15.1822 3.49357 15.2779C3.45231 15.3737 3.43095 15.4768 3.43077 15.581C3.43 15.6823 3.44947 15.7828 3.48804 15.8765C3.52661 15.9702 3.58351 16.0552 3.65538 16.1267L4.37949 16.8446C4.52604 16.9846 4.72091 17.0627 4.92359 17.0627C5.12626 17.0627 5.32114 16.9846 5.46769 16.8446C5.73085 16.5749 6.06876 16.3903 6.43784 16.3144C6.80692 16.2385 7.19027 16.275 7.53846 16.419C7.57043 16.4333 7.60159 16.4494 7.63179 16.4672Z" fill="#1C1D21"/>
</g>
</svg>
