<svg width="28" height="30" viewBox="0 0 28 30" fill="none" xmlns="http://www.w3.org/2000/svg">
<g id="shield-fill-check">
<path id="Subtract" fill-rule="evenodd" clip-rule="evenodd" d="M13.625 0C12.3322 0 10.1701 0.497518 8.13436 1.04935C6.05293 1.61356 3.95593 2.27739 2.7224 2.67991C1.69297 3.01582 0.914347 3.92548 0.764809 5.04768C-0.35386 13.4427 2.24008 19.6629 5.38625 23.7787C6.95343 25.8289 8.65669 27.3569 10.1058 28.3788C10.8298 28.8894 11.5009 29.281 12.0707 29.5493C12.5972 29.7971 13.1606 30 13.625 30C14.0895 30 14.6528 29.7971 15.1793 29.5493C15.7491 29.281 16.4202 28.8894 17.1442 28.3788C18.5933 27.3569 20.2966 25.8289 21.8637 23.7787C25.0099 19.6629 27.6039 13.4427 26.4852 5.04768C26.3357 3.92548 25.557 3.01582 24.5276 2.67991C23.2941 2.27739 21.1971 1.61356 19.1156 1.04935C17.0799 0.497518 14.9178 0 13.625 0ZM17.6496 9.64954C18.0157 9.28343 18.6093 9.28343 18.9754 9.64954C19.3416 10.0157 19.3416 10.6093 18.9754 10.9754L13.3504 16.6004C13.1746 16.7762 12.9362 16.875 12.6875 16.875C12.4389 16.875 12.2004 16.7762 12.0246 16.6004L9.21211 13.7879C8.84599 13.4218 8.84599 12.8282 9.21211 12.462C9.57823 12.0959 10.1718 12.0959 10.5379 12.462L12.6875 14.6116L17.6496 9.64954Z" fill="#806056"/>
</g>
</svg>
