<svg width="20" height="18" viewBox="0 0 20 18" fill="none" xmlns="http://www.w3.org/2000/svg">
<g id="4 - Filled / star" clip-path="url(#clip0_476_511)">
<path id="star-Filled" d="M18.9344 8.63037L15.8204 11.6226L16.5554 15.8435C16.6754 16.5325 16.3974 17.2195 15.8294 17.6355C15.2504 18.0585 14.4944 18.1166 13.8564 17.7876L10.0004 15.7905L6.14445 17.7876C5.87045 17.9296 5.57345 17.9995 5.27845 17.9995C4.88845 17.9995 4.50142 17.8765 4.17142 17.6355C3.60442 17.2195 3.32544 16.5325 3.44544 15.8435L4.18043 11.6226L1.06644 8.63037C0.556443 8.14037 0.373422 7.41951 0.589422 6.74951C0.807422 6.07151 1.38542 5.58857 2.09742 5.48657L6.40644 4.86938L8.33243 1.02441C8.64843 0.392414 9.28843 0.000488281 10.0004 0.000488281C10.7124 0.000488281 11.3524 0.393414 11.6684 1.02441L13.5944 4.86938L17.9034 5.48657C18.6144 5.58857 19.1924 6.07151 19.4104 6.74951C19.6264 7.41951 19.4444 8.14037 18.9344 8.63037Z" fill="#F0C860"/>
</g>
<defs>
<clipPath id="clip0_476_511">
<rect width="20" height="18" fill="white"/>
</clipPath>
</defs>
</svg>
